<svg width="65" height="32" viewBox="0 0 65 32" fill="none" xmlns="http://www.w3.org/2000/svg">
    <g opacity="0.3">
        <path
            d="M42.5 26H22.5C22.09 26 21.75 25.66 21.75 25.25C21.75 24.84 22.09 24.5 22.5 24.5H42.5C42.91 24.5 43.25 24.84 43.25 25.25C43.25 25.66 42.91 26 42.5 26Z"
            fill="#1C1C1C"
            style="fill:#1C1C1C" />
        <path d="M30.25 8V26H34.75V8C34.75 6.9 34.3 6 32.95 6H32.05C30.7 6 30.25 6.9 30.25 8Z"
            fill="#1C1C1C"
            style="fill:#1C1C1C" />
        <path d="M23.5 14V26H27.5V14C27.5 12.9 27.1 12 25.9 12H25.1C23.9 12 23.5 12.9 23.5 14Z"
            fill="#1C1C1C"
            style="fill:#1C1C1C" />
        <path d="M37.5 19V26H41.5V19C41.5 17.9 41.1 17 39.9 17H39.1C37.9 17 37.5 17.9 37.5 19Z"
            fill="#1C1C1C"
            style="fill:#1C1C1C" />
    </g>
</svg>