<svg width="65" height="32" viewBox="0 0 65 32" fill="none" xmlns="http://www.w3.org/2000/svg">
    <g clip-path="url(#clip0_3771_5687)">
        <g opacity="0.3">
            <path fill-rule="evenodd" clip-rule="evenodd"
                d="M29.9905 24.7714V21.7047C29.9904 20.9246 30.6264 20.2908 31.4143 20.2856H34.3003C35.092 20.2856 35.7338 20.9209 35.7338 21.7047V24.7809C35.7336 25.4432 36.2675 25.9845 36.9363 26H38.8603C40.7784 26 42.3333 24.4607 42.3333 22.5618V13.8378C42.323 13.0908 41.9687 12.3893 41.3712 11.933L34.791 6.6853C33.6382 5.77157 31.9995 5.77157 30.8467 6.6853L24.2953 11.9426C23.6955 12.397 23.3406 13.0997 23.3333 13.8474V22.5618C23.3333 24.4607 24.8881 26 26.8062 26H28.7302C29.4156 26 29.9712 25.4499 29.9712 24.7714"
                fill="#1C1C1C"
                style="fill:#1C1C1C" />
        </g>
    </g>
    <defs>
        <clipPath id="clip0_3771_5687">
            <rect x="0.833252" width="64" height="32" rx="16" fill="white"
                style="fill:white;fill-opacity:1;" />
        </clipPath>
    </defs>
</svg>