<svg width="24" height="25" viewBox="0 0 24 25" fill="none" xmlns="http://www.w3.org/2000/svg">
    <path
        d="M12 22.5C6.49 22.5 2 18.01 2 12.5C2 6.99 6.49 2.5 12 2.5C17.51 2.5 22 6.99 22 12.5C22 18.01 17.51 22.5 12 22.5ZM11.25 16.5C11.25 16.91 11.59 17.25 12 17.25C12.41 17.25 12.75 16.91 12.75 16.5V11.5C12.75 11.09 12.41 10.75 12 10.75C11.59 10.75 11.25 11.09 11.25 11.5V16.5ZM12.92 8.12C12.87 7.99 12.8 7.89 12.71 7.79C12.61 7.7 12.5 7.63 12.38 7.58C12.26 7.53 12.13 7.5 12 7.5C11.87 7.5 11.74 7.53 11.62 7.58C11.5 7.63 11.39 7.7 11.29 7.79C11.2 7.89 11.13 7.99 11.08 8.12C11.03 8.24 11 8.37 11 8.5C11 8.63 11.03 8.76 11.08 8.88C11.13 9 11.2 9.11 11.29 9.21C11.39 9.3 11.5 9.37 11.62 9.42C11.86 9.52 12.14 9.52 12.38 9.42C12.5 9.37 12.61 9.3 12.71 9.21C12.8 9.11 12.87 9 12.92 8.88C12.97 8.76 13 8.63 13 8.5C13 8.37 12.97 8.24 12.92 8.12Z"
        fill="#1C1C1C"
        style="fill:#1C1C1C" />
</svg>