<svg width="20" height="16" viewBox="0 0 20 16" fill="none" xmlns="http://www.w3.org/2000/svg">
<path opacity="0.8" d="M2.557 16H17.443C19.1368 16 20 15.1274 20 13.3991V4.61458C20 2.88621 19.1368 2.02202 17.443 2.02202H15.114C14.4707 2.02202 14.2752 1.88778 13.9088 1.46827L13.2573 0.713162C12.8502 0.251704 12.4349 0 11.5961 0H8.34691C7.50814 0 7.09283 0.251704 6.68567 0.713162L6.0342 1.46827C5.66775 1.87939 5.46417 2.02202 4.82899 2.02202H2.557C0.855049 2.02202 0 2.88621 0 4.61458V13.3991C0 15.1274 0.855049 16 2.557 16ZM10 13.5249C7.53257 13.5249 5.55375 11.4945 5.55375 8.9355C5.55375 6.3849 7.53257 4.35448 10 4.35448C12.4674 4.35448 14.4381 6.3849 14.4381 8.9355C14.4381 11.4945 12.4593 13.5249 10 13.5249ZM14.9837 5.84793C14.9837 5.2774 15.4723 4.77399 16.0423 4.77399C16.6042 4.77399 17.0847 5.2774 17.0847 5.84793C17.0847 6.44363 16.6042 6.92187 16.0423 6.93026C15.4723 6.93026 14.9837 6.45202 14.9837 5.84793ZM10 12.2496C11.7752 12.2496 13.2085 10.7813 13.2085 8.9355C13.2085 7.09806 11.7752 5.6214 10 5.6214C8.22476 5.6214 6.78339 7.09806 6.78339 8.9355C6.78339 10.7813 8.2329 12.2496 10 12.2496Z" fill="black" style="fill:black;fill-opacity:1;"/>
</svg>
