<svg width="20" height="20" viewBox="0 0 20 20" fill="none" xmlns="http://www.w3.org/2000/svg">
<path d="M19.0144 2.39206L19.7422 1.64279C20.0859 1.27827 20.0859 0.792258 19.7422 0.458123L19.5097 0.215115C19.1964 -0.0987703 18.701 -0.058269 18.3674 0.265741L17.6295 0.994765L19.0144 2.39206ZM6.85368 13.4388L8.82487 12.5781L18.2664 3.13121L16.8815 1.76429L7.45009 11.2112L6.54031 13.1148C6.45944 13.2869 6.66161 13.5198 6.85368 13.4388ZM3.17412 20H15.0417C16.8613 20 17.9126 18.947 17.9126 16.8611V6.03718L16.2851 7.66735V16.7801C16.2851 17.8332 15.719 18.3698 15.0215 18.3698H3.20445C2.19358 18.3698 1.6275 17.8332 1.6275 16.7801V5.2879C1.6275 4.23487 2.19358 3.6881 3.20445 3.6881H12.4134L14.0409 2.05792H3.17412C1.07152 2.05792 0 3.11096 0 5.19677V16.8611C0 18.9571 1.07152 20 3.17412 20Z" fill="white" style="fill:white;fill-opacity:1;"/>
</svg>
