<svg width="24" height="25" viewBox="0 0 24 25" fill="none" xmlns="http://www.w3.org/2000/svg">
    <path
        d="M21.75 8.49996C21.75 8.90996 21.41 9.24996 21 9.24996H3C2.59 9.24996 2.25 8.90996 2.25 8.49996C2.25 8.08996 2.59 7.74996 3 7.74996H4.02L4.4 5.93996C4.76 4.18996 5.51 2.57996 8.49 2.57996H15.51C18.49 2.57996 19.24 4.18996 19.6 5.93996L19.98 7.74996H21C21.41 7.74996 21.75 8.08996 21.75 8.49996Z"
        fill="#1C1C1C"
        style="fill:#1C1C1C" />
    <path
        d="M22.1801 14.16C22.0301 12.51 21.5901 10.75 18.3801 10.75H5.62009C2.41009 10.75 1.98009 12.51 1.82009 14.16L1.26009 20.25C1.19009 21.01 1.44009 21.77 1.96009 22.34C2.49009 22.92 3.24009 23.25 4.04009 23.25H5.92009C7.54009 23.25 7.85009 22.32 8.05009 21.71L8.25009 21.11C8.48009 20.42 8.54009 20.25 9.44009 20.25H14.5601C15.4601 20.25 15.4901 20.35 15.7501 21.11L15.9501 21.71C16.1501 22.32 16.4601 23.25 18.0801 23.25H19.9601C20.7501 23.25 21.5101 22.92 22.0401 22.34C22.5601 21.77 22.8101 21.01 22.7401 20.25L22.1801 14.16ZM9.00009 16.25H6.00009C5.59009 16.25 5.25009 15.91 5.25009 15.5C5.25009 15.09 5.59009 14.75 6.00009 14.75H9.00009C9.41009 14.75 9.75009 15.09 9.75009 15.5C9.75009 15.91 9.41009 16.25 9.00009 16.25ZM18.0001 16.25H15.0001C14.5901 16.25 14.2501 15.91 14.2501 15.5C14.2501 15.09 14.5901 14.75 15.0001 14.75H18.0001C18.4101 14.75 18.7501 15.09 18.7501 15.5C18.7501 15.91 18.4101 16.25 18.0001 16.25Z"
        fill="#1C1C1C"
        style="fill:#1C1C1C" />
</svg>