<svg width="24" height="25" viewBox="0 0 24 25" fill="none" xmlns="http://www.w3.org/2000/svg">
    <path
        d="M22.3599 8.77L22.0699 6C21.6499 2.98 20.2799 1.75 17.3499 1.75H14.9899H13.5099H10.4699H8.98989H6.58989C3.64989 1.75 2.28989 2.98 1.85989 6.03L1.58989 8.78C1.48989 9.85 1.77989 10.89 2.40989 11.7C3.16989 12.69 4.33989 13.25 5.63989 13.25C6.89989 13.25 8.10989 12.62 8.86989 11.61C9.54989 12.62 10.7099 13.25 11.9999 13.25C13.2899 13.25 14.4199 12.65 15.1099 11.65C15.8799 12.64 17.0699 13.25 18.3099 13.25C19.6399 13.25 20.8399 12.66 21.5899 11.62C22.1899 10.82 22.4599 9.81 22.3599 8.77Z"
        fill="#1C1C1C"
        style="fill:#1C1C1C" />
    <path
        d="M11.3501 17.16C10.0801 17.29 9.12012 18.37 9.12012 19.65V22.39C9.12012 22.66 9.34012 22.88 9.61012 22.88H14.3801C14.6501 22.88 14.8701 22.66 14.8701 22.39V20C14.8801 17.91 13.6501 16.92 11.3501 17.16Z"
        fill="#1C1C1C"
        style="fill:#1C1C1C" />
    <path
        d="M21.3699 14.9V17.88C21.3699 20.64 19.1299 22.88 16.3699 22.88C16.0999 22.88 15.8799 22.66 15.8799 22.39V20C15.8799 18.72 15.4899 17.72 14.7299 17.04C14.0599 16.43 13.1499 16.13 12.0199 16.13C11.7699 16.13 11.5199 16.14 11.2499 16.17C9.46988 16.35 8.11988 17.85 8.11988 19.65V22.39C8.11988 22.66 7.89988 22.88 7.62988 22.88C4.86988 22.88 2.62988 20.64 2.62988 17.88V14.92C2.62988 14.22 3.31988 13.75 3.96988 13.98C4.23988 14.07 4.50988 14.14 4.78988 14.18C4.90988 14.2 5.03988 14.22 5.15988 14.22C5.31988 14.24 5.47988 14.25 5.63988 14.25C6.79988 14.25 7.93988 13.82 8.83988 13.08C9.69988 13.82 10.8199 14.25 11.9999 14.25C13.1899 14.25 14.2899 13.84 15.1499 13.1C16.0499 13.83 17.1699 14.25 18.3099 14.25C18.4899 14.25 18.6699 14.24 18.8399 14.22C18.9599 14.21 19.0699 14.2 19.1799 14.18C19.4899 14.14 19.7699 14.05 20.0499 13.96C20.6999 13.74 21.3699 14.22 21.3699 14.9Z"
        fill="#1C1C1C"
        style="fill:#1C1C1C" />
</svg>