<svg width="24" height="25" viewBox="0 0 24 25" fill="none" xmlns="http://www.w3.org/2000/svg">
    <path
        d="M18.54 4.67001L13.04 2.61001C12.47 2.40001 11.54 2.40001 10.97 2.61001L5.47005 4.67001C4.41005 5.07001 3.55005 6.31001 3.55005 7.44001V15.54C3.55005 16.35 4.08005 17.42 4.73005 17.9L10.23 22.01C11.2 22.74 12.79 22.74 13.76 22.01L19.26 17.9C19.91 17.41 20.4401 16.35 20.4401 15.54V7.44001C20.4501 6.31001 19.59 5.07001 18.54 4.67001ZM12.75 13.37V16C12.75 16.41 12.41 16.75 12 16.75C11.59 16.75 11.25 16.41 11.25 16V13.37C10.24 13.05 9.50005 12.11 9.50005 11C9.50005 9.62001 10.62 8.50001 12 8.50001C13.38 8.50001 14.5 9.62001 14.5 11C14.5 12.12 13.76 13.05 12.75 13.37Z"
        fill="#1C1C1C"
        style="fill:#1C1C1C" />
</svg>