<svg width="22" height="23" viewBox="0 0 22 23" fill="none" xmlns="http://www.w3.org/2000/svg">
    <path
        d="M20.1666 5.73416V14.5158C20.1666 17.0458 18.1133 19.0992 15.5833 19.0992H6.41663C5.99496 19.0992 5.59163 19.0442 5.19746 18.9342C4.62913 18.7783 4.4458 18.0542 4.86746 17.6325L14.6116 7.88833C14.8133 7.68666 15.1158 7.64083 15.4 7.69583C15.6933 7.75083 16.0141 7.66833 16.2433 7.44833L18.5991 5.08333C19.4608 4.22166 20.1666 4.50583 20.1666 5.73416Z"
        fill="#1C1C1C"
        style="fill:#1C1C1C" />
    <path
        d="M13.4202 7.24668L3.82266 16.8442C3.38266 17.2842 2.64933 17.1742 2.356 16.6242C2.01683 16.0009 1.8335 15.2767 1.8335 14.5159V5.73418C1.8335 4.50585 2.53933 4.22168 3.401 5.08335L5.766 7.45752C6.1235 7.80585 6.71016 7.80585 7.06766 7.45752L10.3493 4.16668C10.7068 3.80918 11.2935 3.80918 11.651 4.16668L13.4293 5.94502C13.7777 6.30252 13.7777 6.88918 13.4202 7.24668Z"
        fill="#1C1C1C"
        style="fill:#1C1C1C" />
</svg>